<svg xmlns="http://www.w3.org/2000/svg" width="944.5" height="243.5" viewBox="0 0 1889 487">
  <defs>
    <style>
      .cls-1 {
        fill-rule: evenodd;
      }
    </style>
  </defs>
  <path id="Vehi_black_копия" data-name="Vehi_black копия" class="cls-1" d="M0.048,487.137H235.529q41.8,0,73.152-11.147t52.6-31.7a129.5,129.5,0,0,0,31.7-48.769q10.45-28.215,10.45-63.05,0-34.126-17.069-58.87-17.079-24.721-55.386-35.182l0.7-3.484q48.072-13.226,71.411-49.813t23.339-84.647q0-25.081-9.057-43.892a87.379,87.379,0,0,0-25.081-31.351q-16.035-12.54-38.318-18.462A190,190,0,0,0,305.2.849H97.585Zm119.134-86.389L142.173,284.4H261.306q20.2,0,29.261,8.708,9.047,8.72,9.057,22.643a85.63,85.63,0,0,1-1.394,13.237q-1.4,8.36-4.876,26.474-9.063,45.3-57.825,45.285H119.182ZM158.893,201.5L181.884,87.239H283.6q19.5,0,28.564,9.057,9.047,9.062,9.057,23.688a73.356,73.356,0,0,1-1.393,12.54q-1.4,7.674-4.877,25.778-4.882,23.693-19.159,33.441-14.287,9.764-38.666,9.753H158.893ZM808.205,487.137l18.114-89.176H607.56l22.294-112.167H816.566l18.114-89.176H647.967l21.6-106.593h211.1L898.775,0.849H585.962L488.426,487.137H808.205ZM1202.53,245.386L1402.48,0.849H1285.44L1163.52,161.087h-5.58L1091.76,0.849H983.074l101.716,229.21L882.751,487.137H999.794L1124.5,317.842h5.57l68.98,169.3h109.38Zm204.83,241.751h91.26l206.22-247.324,64.1-92.659h2.09l-30.66,99.626L1692.3,487.137h98.23L1888.07,0.849H1796.8L1590.58,248.173l-64.09,92.66h-2.09l30.65-99.627L1603.13,0.849h-98.24Z"/>
</svg>
