<svg id="process_icons" data-name="process icons" xmlns="http://www.w3.org/2000/svg" width="500" height="500" viewBox="0 0 500 500">
  <defs>
    <style>
      .cls-1 {
        fill: #52bc4a;
        fill-rule: evenodd;
      }
    </style>
  </defs>
  <path id="drying-board" class="cls-1" d="M250.074,0l33.4,55.716c14.4,23.153,29.038,45.14,44.529,66.859,15.271,21.412,42.254,63.122,63.611,97.105,9.334,14.852,29.287,50.12,33.4,92.329,3.956,40.638-3.279,90.493-34.986,128.942-36.486,44.242-92.518,57.49-131.994,58.9-33.676,1.2-101.931-5.107-146.307-58.9C85.056,408.63,73.741,365.9,75.143,323.152c1.1-33.5,10.683-61.044,25.444-90.737,28.429-57.184,90.075-133.73,98.6-146.453,7.693-11.482,14.992-22.97,22.264-35.021Q235.762,25.47,250.074,0ZM137.164,386.827c10.153,22.209,26.116,40.525,46.118,50.94,30.761,16.018,67.828,14.2,69.973,6.368C255.021,437.684,222.908,423.524,203,405c-19.428-18.078-31.573-35.4-39-51-15.673-32.922-18.118-70.284-9.343-107.258C128.193,288.555,116.5,341.63,137.164,386.827Z"/>
</svg>
