<svg id="process_icons" data-name="process icons" xmlns="http://www.w3.org/2000/svg" width="500" height="500" viewBox="0 0 500 500">
  <defs>
    <style>
      .cls-1 {
        fill: #52bc4a;
        fill-rule: evenodd;
      }
    </style>
  </defs>
  <path id="processing" class="cls-1" d="M433.8,224.59a158.031,158.031,0,0,1,1.8,35.515c-0.275,4.415-.728,8.764-1.371,13.139a157.313,157.313,0,0,1-6.411,26.945L499.931,322.7q-8.9-37.41-17.792-74.82ZM67.389,273.041A159.42,159.42,0,0,1,65.5,237.383c0.263-4.436.7-8.807,1.334-13.205a159.221,159.221,0,0,1,6.331-27.1L1.074,174.933l17.973,75.029ZM226.856,67.376a158.6,158.6,0,0,1,35.466-2.364c4.417,0.2,8.772.583,13.155,1.151A158.035,158.035,0,0,1,302.516,72.1Q313.155,36.052,323.8,0L249.318,18.913Zm50.825,365.807a160.677,160.677,0,0,1-35.752,2.118c-4.45-.233-8.836-0.646-13.249-1.246a160.148,160.148,0,0,1-27.21-6.144l-21.894,72.1,75.168-18.425Q266.213,457.385,277.681,433.183Zm-141.837-38.8a158.977,158.977,0,0,1-26.379-24.235c-2.928-3.372-5.685-6.827-8.327-10.435a161.226,161.226,0,0,1-14.55-24l-66.6,35.865L85.4,412.527ZM365,103.248a158,158,0,0,1,26.5,23.821c2.945,3.32,5.718,6.721,8.377,10.276a158.887,158.887,0,0,1,14.663,23.66l66.448-35.9L415.372,84.987Zm33.2,257.263a157.12,157.12,0,0,1-23.386,26.458c-3.257,2.94-6.594,5.709-10.082,8.364a155.549,155.549,0,0,1-23.206,14.637l35.046,66.4q19.714-32.766,39.427-65.532Zm-294.9-223.09a164.086,164.086,0,0,1,24.275-26.9c3.37-2.992,6.82-5.811,10.421-8.515a162.9,162.9,0,0,1,23.915-14.92l-34.8-67.192L85.887,86.462ZM250.5,63.83c102.506,0,185.6,83.086,185.6,185.579s-83.1,185.579-185.6,185.579S64.9,351.9,64.9,249.409,147.994,63.83,250.5,63.83Zm0,47.426A138.153,138.153,0,1,1,112.328,249.409,138.163,138.163,0,0,1,250.5,111.256Zm0.516,49.487a89.182,89.182,0,1,1-89.193,89.181A89.187,89.187,0,0,1,251.016,160.743ZM250.5,209.22a40.189,40.189,0,1,1-40.194,40.189A40.191,40.191,0,0,1,250.5,209.22Z"/>
</svg>
